<svg xmlns="http://www.w3.org/2000/svg" viewBox="0 0 100 125" x="0px" y="0px"><g data-name="Layer 2"><path d="M24.99,32.93a3.953,3.953,0,0,1,.932,4.958c-2.511,4.591-5.875,13.2-.21,19.316a13.012,13.012,0,0,0,9.574,3.977H36.58a2.059,2.059,0,0,1,1.5.647l2.276,2.44a1,1,0,0,0,1.463,0l2.278-2.44a2.056,2.056,0,0,1,1.5-.647h1.294A13.012,13.012,0,0,0,56.467,57.2c5.665-6.113,2.3-14.725-.21-19.316a3.954,3.954,0,0,1,.931-4.958l2.679-2.268a1,1,0,0,0,.111-1.418L53.435,21.7a1,1,0,0,0-1.312-.176c-2.738,1.829-5.166,2.545-7.21,2.134a4.831,4.831,0,0,1-2.98-1.84,1,1,0,0,0-.838-.459.92.92,0,0,0-.845.453,4.842,4.842,0,0,1-2.984,1.846c-2.049.41-4.472-.306-7.21-2.134a1,1,0,0,0-1.312.176L22.2,29.244a1,1,0,0,0,.111,1.418Zm4.7-9.27c2.934,1.794,5.63,2.445,8.032,1.942a7.038,7.038,0,0,0,3.368-1.745A7.042,7.042,0,0,0,44.458,25.6c2.407.5,5.1-.149,8.031-1.942L57.8,29.789,55.9,31.4A5.936,5.936,0,0,0,54.5,38.848c2.252,4.118,5.31,11.8.5,17a11.009,11.009,0,0,1-8.107,3.336H45.6a4.064,4.064,0,0,0-2.964,1.283L41.089,62.12l-1.545-1.656a4.066,4.066,0,0,0-2.964-1.283H35.286a11.009,11.009,0,0,1-8.107-3.336c-4.814-5.195-1.755-12.879.5-17A5.936,5.936,0,0,0,26.282,31.4l-1.906-1.614Z"/><path d="M36.715,45.053l-.69,4.024a1,1,0,0,0,1.452,1.054l3.612-1.9,3.613,1.9a1,1,0,0,0,1.451-1.054l-.689-4.024L48.388,42.2a1,1,0,0,0-.555-1.706l-4.04-.588-1.808-3.661a1.041,1.041,0,0,0-1.793,0l-1.806,3.66-4.04.588a1,1,0,0,0-.555,1.706Zm2.478-3.239a1,1,0,0,0,.753-.547l1.143-2.316,1.143,2.316a1,1,0,0,0,.753.547l2.556.372-1.85,1.8a1,1,0,0,0-.287.886l.436,2.545-2.285-1.2a1,1,0,0,0-.932,0l-2.284,1.2.435-2.544a1,1,0,0,0-.287-.886l-1.849-1.8Z"/><path d="M41.089,55.934A12.966,12.966,0,1,0,28.124,42.969,12.98,12.98,0,0,0,41.089,55.934Zm0-23.931A10.966,10.966,0,1,1,30.124,42.969,10.978,10.978,0,0,1,41.089,32Z"/><path d="M41.089,70.643A29.635,29.635,0,1,0,11.454,41.007,29.67,29.67,0,0,0,41.089,70.643Zm0-57.27A27.635,27.635,0,1,1,13.454,41.007,27.667,27.667,0,0,1,41.089,13.373Z"/><path d="M41.089,77.515A36.316,36.316,0,0,0,63.177,70.05l3.038,3.038L65.163,74.14a1,1,0,0,0,0,1.414L82.975,93.365a7.286,7.286,0,0,0,10.285.021c.006,0,.015-.011.02-.016l0-.007a7.3,7.3,0,0,0,0-10.307L75.472,65.245a1,1,0,0,0-1.414,0L73.007,66.3l-3.019-3.019a36.487,36.487,0,1,0-28.9,14.238ZM74.765,67.366l17.1,17.1a5.29,5.29,0,0,1-7.48,7.481l-17.1-17.1L68.331,73.8l.006,0,0-.006Zm-3.172.344-3.964,3.964L64.74,68.785a36.805,36.805,0,0,0,3.975-3.952ZM41.089,6.5A34.508,34.508,0,1,1,6.582,41.007,34.547,34.547,0,0,1,41.089,6.5Z"/></g><text x="0" y="115" fill="#000000" font-size="5px" font-weight="bold" font-family="'Helvetica Neue', Helvetica, Arial-Unicode, Arial, Sans-serif">Created by CNumberOnee</text><text x="0" y="120" fill="#000000" font-size="5px" font-weight="bold" font-family="'Helvetica Neue', Helvetica, Arial-Unicode, Arial, Sans-serif">from the Noun Project</text></svg>